<svg width="170" height="167" viewBox="0 0 170 167" fill="none" xmlns="http://www.w3.org/2000/svg">
<path d="M108.497 10.7758C125.457 16.3709 139.863 27.8341 149.125 43.1034C158.387 58.3727 161.897 76.4459 159.022 94.0718C156.148 111.698 147.078 127.719 133.445 139.255C119.811 150.79 102.509 157.082 84.6506 156.999C66.792 156.916 49.5492 150.463 36.024 138.801C22.4987 127.139 13.5787 111.033 10.8686 93.3815C8.1585 75.7296 11.8361 57.6899 21.2399 42.5076C30.6437 27.3252 45.1565 15.9967 62.1676 10.56" stroke="black" stroke-width="20" stroke-linecap="round" stroke-linejoin="round"/>
<path d="M49.1541 64.2498C53.1538 56.1724 59.7645 49.6826 67.9144 45.8326C76.0643 41.9825 85.2756 40.998 94.0552 43.0384C102.835 45.0789 110.668 50.0248 116.284 57.0744C121.901 64.1239 124.972 72.8639 125 81.8774C125.027 90.8908 122.01 99.6494 116.437 106.733C110.863 113.817 103.061 118.811 94.2939 120.905C85.5271 123 76.3099 122.071 68.1365 118.272C59.9632 114.472 53.3128 108.022 49.2636 99.9696" stroke="black" stroke-width="20" stroke-linecap="round" stroke-linejoin="round"/>
</svg>
