<svg width="919" height="223" viewBox="0 0 919 223" fill="none" xmlns="http://www.w3.org/2000/svg">
<path d="M206.2 222.8C203.267 222.8 200.8 221.8 198.8 219.8C196.933 217.933 196 215.533 196 212.6V121.4C196.133 110.867 198.6 101.4 203.4 93C208.2 84.6 214.733 78 223 73.2C231.267 68.2667 240.6 65.8 251 65.8C261.533 65.8 270.933 68.2667 279.2 73.2C287.467 78 294 84.6 298.8 93C303.733 101.4 306.2 110.867 306.2 121.4C306.2 131.933 303.933 141.4 299.4 149.8C295 158.067 288.933 164.667 281.2 169.6C273.467 174.4 264.733 176.8 255 176.8C247.133 176.8 239.867 175.2 233.2 172C226.667 168.667 221.067 164.2 216.4 158.6V212.6C216.4 215.533 215.467 217.933 213.6 219.8C211.733 221.8 209.267 222.8 206.2 222.8ZM251 158.8C257.8 158.8 263.867 157.2 269.2 154C274.533 150.667 278.733 146.2 281.8 140.6C285 134.867 286.6 128.467 286.6 121.4C286.6 114.2 285 107.8 281.8 102.2C278.733 96.4667 274.533 92 269.2 88.8C263.867 85.4667 257.8 83.8 251 83.8C244.333 83.8 238.267 85.4667 232.8 88.8C227.467 92 223.267 96.4667 220.2 102.2C217.133 107.8 215.6 114.2 215.6 121.4C215.6 128.467 217.133 134.867 220.2 140.6C223.267 146.2 227.467 150.667 232.8 154C238.267 157.2 244.333 158.8 251 158.8ZM376.425 176C369.758 176 363.758 174.333 358.425 171C353.092 167.533 348.892 162.867 345.825 157C342.758 151.133 341.225 144.533 341.225 137.2V87.8H332.025C329.225 87.8 326.958 87 325.225 85.4C323.492 83.8 322.625 81.8 322.625 79.4C322.625 76.7333 323.492 74.6 325.225 73C326.958 71.4 329.225 70.6 332.025 70.6H341.225V41.8C341.225 38.8667 342.158 36.4667 344.025 34.6C345.892 32.7333 348.292 31.8 351.225 31.8C354.158 31.8 356.558 32.7333 358.425 34.6C360.292 36.4667 361.225 38.8667 361.225 41.8V70.6H378.225C381.025 70.6 383.292 71.4 385.025 73C386.758 74.6 387.625 76.7333 387.625 79.4C387.625 81.8 386.758 83.8 385.025 85.4C383.292 87 381.025 87.8 378.225 87.8H361.225V137.2C361.225 142.533 362.692 147 365.625 150.6C368.558 154.2 372.158 156 376.425 156H383.225C385.625 156 387.625 156.933 389.225 158.8C390.958 160.667 391.825 163.067 391.825 166C391.825 168.933 390.692 171.333 388.425 173.2C386.292 175.067 383.492 176 380.025 176H376.425Z" fill="white"/>
<rect x="434" y="66" width="20" height="110" rx="10" fill="white"/>
<path d="M500.2 176.2C497.267 176.2 494.8 175.267 492.8 173.4C490.933 171.4 490 168.933 490 166V77C490 73.9333 490.933 71.4667 492.8 69.6C494.8 67.7333 497.267 66.8 500.2 66.8C503.267 66.8 505.733 67.7333 507.6 69.6C509.467 71.4667 510.4 73.8 510.4 76.6C513.867 73.1333 518 70.4667 522.8 68.6C527.6 66.6 532.8 65.6 538.4 65.6C552.4 65.6 562.933 70.8667 570 81.4C573.867 76.4667 578.8 72.6 584.8 69.8C590.8 67 597.533 65.6 605 65.6C616.467 65.6 625.8 69.3333 633 76.8C640.2 84.2667 643.8 94.9333 643.8 108.8V166C643.8 168.933 642.867 171.4 641 173.4C639.133 175.267 636.667 176.2 633.6 176.2C630.667 176.2 628.2 175.267 626.2 173.4C624.333 171.4 623.4 168.933 623.4 166V108.8C623.4 100.4 621.333 94.2 617.2 90.2C613.067 86.0667 607.667 84 601 84C594.067 84 588.333 86.4 583.8 91.2C579.4 96 577.2 102.133 577.2 109.6V166C577.2 168.933 576.267 171.4 574.4 173.4C572.533 175.267 570.067 176.2 567 176.2C564.067 176.2 561.6 175.267 559.6 173.4C557.733 171.4 556.8 168.933 556.8 166V108.8C556.8 100.4 554.733 94.2 550.6 90.2C546.467 86.0667 541.067 84 534.4 84C527.467 84 521.733 86.4 517.2 91.2C512.667 96 510.4 102.133 510.4 109.6V166C510.4 168.933 509.467 171.4 507.6 173.4C505.733 175.267 503.267 176.2 500.2 176.2ZM723.695 177C714.495 177 706.229 175.067 698.895 171.2C691.695 167.2 685.962 161.4 681.695 153.8C677.562 146.2 675.495 136.867 675.495 125.8V76.6C675.495 73.6667 676.429 71.2667 678.295 69.4C680.295 67.4 682.762 66.4 685.695 66.4C688.629 66.4 691.029 67.4 692.895 69.4C694.895 71.2667 695.895 73.6667 695.895 76.6V125.8C695.895 137.133 698.895 145.467 704.895 150.8C711.029 156 718.629 158.6 727.695 158.6C733.429 158.6 738.495 157.467 742.895 155.2C747.429 152.933 751.029 149.867 753.695 146C756.362 142.133 757.695 137.8 757.695 133V76.6C757.695 73.5333 758.629 71.0667 760.495 69.2C762.495 67.3333 764.962 66.4 767.895 66.4C770.962 66.4 773.429 67.3333 775.295 69.2C777.162 71.0667 778.095 73.5333 778.095 76.6V165.8C778.095 168.733 777.162 171.2 775.295 173.2C773.429 175.067 770.962 176 767.895 176C764.962 176 762.495 175.067 760.495 173.2C758.629 171.2 757.695 168.733 757.695 165.8V163.6C753.562 167.733 748.562 171 742.695 173.4C736.829 175.8 730.495 177 723.695 177ZM853.823 176.8C844.49 176.8 835.823 175.4 827.823 172.6C819.957 169.667 813.823 166 809.423 161.6C807.423 159.467 806.557 157.067 806.823 154.4C807.223 151.6 808.557 149.333 810.823 147.6C813.49 145.467 816.09 144.6 818.623 145C821.29 145.267 823.557 146.4 825.423 148.4C827.69 150.933 831.29 153.333 836.223 155.6C841.29 157.733 846.89 158.8 853.023 158.8C860.757 158.8 866.623 157.533 870.623 155C874.757 152.467 876.89 149.2 877.023 145.2C877.157 141.2 875.223 137.733 871.223 134.8C867.357 131.867 860.223 129.467 849.823 127.6C836.357 124.933 826.557 120.933 820.423 115.6C814.423 110.267 811.423 103.733 811.423 96C811.423 89.2 813.423 83.6 817.423 79.2C821.423 74.6667 826.557 71.3333 832.823 69.2C839.09 66.9333 845.623 65.8 852.423 65.8C861.223 65.8 869.023 67.2 875.823 70C882.623 72.8 888.023 76.6667 892.023 81.6C893.89 83.7333 894.757 86 894.623 88.4C894.49 90.6667 893.357 92.6 891.223 94.2C889.09 95.6667 886.557 96.1333 883.623 95.6C880.69 95.0667 878.223 93.8667 876.223 92C872.89 88.8 869.29 86.6 865.423 85.4C861.557 84.2 857.09 83.6 852.023 83.6C846.157 83.6 841.157 84.6 837.023 86.6C833.023 88.6 831.023 91.5333 831.023 95.4C831.023 97.8 831.623 100 832.823 102C834.157 103.867 836.69 105.6 840.423 107.2C844.157 108.667 849.623 110.133 856.823 111.6C871.89 114.533 882.29 118.733 888.023 124.2C893.89 129.533 896.823 136.133 896.823 144C896.823 150.133 895.157 155.667 891.823 160.6C888.623 165.533 883.823 169.467 877.423 172.4C871.157 175.333 863.29 176.8 853.823 176.8Z" fill="white"/>
<rect x="408" y="43.6569" width="8" height="22" rx="4" transform="rotate(-45 408 43.6569)" fill="#F94144"/>
<rect x="440" y="27" width="8" height="22" rx="4" fill="#8F77E1"/>
<rect x="472.557" y="38" width="8" height="22" rx="4" transform="rotate(45 472.557 38)" fill="#1ED760"/>
<path d="M890.879 185.271C880.206 192.065 867.567 195.797 854.571 195.992C841.576 196.187 828.811 192.835 817.901 186.364" stroke="#F94144" stroke-width="16" stroke-linecap="round" stroke-linejoin="round"/>
<path d="M108.497 29.7758C125.457 35.3709 139.863 46.8341 149.125 62.1034C158.387 77.3727 161.897 95.4459 159.022 113.072C156.148 130.698 147.078 146.719 133.445 158.255C119.811 169.79 102.509 176.082 84.6506 175.999C66.792 175.916 49.5492 169.463 36.024 157.801C22.4987 146.139 13.5787 130.033 10.8686 112.381C8.1585 94.7296 11.8361 76.6899 21.2399 61.5076C30.6437 46.3252 45.1565 34.9967 62.1676 29.56" stroke="white" stroke-width="20" stroke-linecap="round" stroke-linejoin="round"/>
<path d="M49.1541 83.2498C53.1538 75.1724 59.7645 68.6826 67.9144 64.8326C76.0643 60.9825 85.2756 59.998 94.0552 62.0384C102.835 64.0789 110.668 69.0248 116.284 76.0744C121.901 83.1239 124.972 91.8639 125 100.877C125.027 109.891 122.01 118.649 116.437 125.733C110.863 132.817 103.061 137.811 94.2939 139.905C85.5271 142 76.3099 141.071 68.1365 137.272C59.9632 133.472 53.3128 127.022 49.2636 118.97" stroke="white" stroke-width="20" stroke-linecap="round" stroke-linejoin="round"/>
</svg>
